HIERARCHY
ROOT mixamorig:Hips
{
	OFFSET 0.000000 201.639420 0.000000
	CHANNELS 6 Xposition Yposition Zposition Xrotation Yrotation Zrotation
	JOINT mixamorig:Spine
	{
		OFFSET 0.006200 19.524994 -2.481800
		CHANNELS 3 Xrotation Yrotation Zrotation
		JOINT mixamorig:Spine1
		{
			OFFSET -0.000900 22.835007 -2.825400
			CHANNELS 3 Xrotation Yrotation Zrotation
			JOINT mixamorig:Spine2
			{
				OFFSET -0.020600 26.552490 -3.193300
				CHANNELS 3 Xrotation Yrotation Zrotation
				JOINT mixamorig:Neck
				{
					OFFSET -0.060000 30.701813 1.352200
					CHANNELS 3 Xrotation Yrotation Zrotation
					JOINT mixamorig:Head
					{
						OFFSET -0.087200 22.547607 3.670900
						CHANNELS 3 Xrotation Yrotation Zrotation
						JOINT mixamorig:HeadTop_End
						{
							OFFSET -0.830600 40.355194 7.893500
							CHANNELS 3 Xrotation Yrotation Zrotation
							End Site
							{
								OFFSET 0.000000 30.592346 0.000000
							}
						}
						JOINT mixamorig:RightEye
						{
							OFFSET -6.302100 18.118591 16.197100
							CHANNELS 3 Xrotation Yrotation Zrotation
							End Site
							{
								OFFSET 0.000000 30.592346 0.000000
							}
						}
						JOINT mixamorig:LeftEye
						{
							OFFSET 6.741500 18.382690 16.401899
							CHANNELS 3 Xrotation Yrotation Zrotation
							End Site
							{
								OFFSET 0.000000 30.592346 0.000000
							}
						}
					}
				}
				JOINT mixamorig:LeftShoulder
				{
					OFFSET 11.924900 18.230499 1.425400
					CHANNELS 3 Xrotation Yrotation Zrotation
					JOINT mixamorig:LeftArm
					{
						OFFSET 25.435989 -0.697632 -5.229300
						CHANNELS 3 Xrotation Yrotation Zrotation
						JOINT mixamorig:LeftForeArm
						{
							OFFSET 54.684776 0.000000 0.000000
							CHANNELS 3 Xrotation Yrotation Zrotation
							JOINT mixamorig:LeftHand
							{
								OFFSET 55.098175 0.000000 0.000000
								CHANNELS 3 Xrotation Yrotation Zrotation
								JOINT mixamorig:LeftHandMiddle1
								{
									OFFSET 23.369751 0.000000 0.000000
									CHANNELS 3 Xrotation Yrotation Zrotation
									JOINT mixamorig:LeftHandMiddle2
									{
										OFFSET 6.378677 0.000000 0.000000
										CHANNELS 3 Xrotation Yrotation Zrotation
										JOINT mixamorig:LeftHandMiddle3
										{
											OFFSET 6.148331 0.000000 0.000000
											CHANNELS 3 Xrotation Yrotation Zrotation
											JOINT mixamorig:LeftHandMiddle4
											{
												OFFSET 6.582504 0.000000 0.000000
												CHANNELS 3 Xrotation Yrotation Zrotation
												End Site
												{
													OFFSET -1.168900 6.395691 1.028606
												}
											}
										}
									}
								}
								JOINT mixamorig:LeftHandThumb1
								{
									OFFSET 7.235672 -3.848206 5.434273
									CHANNELS 3 Xrotation Yrotation Zrotation
									JOINT mixamorig:LeftHandThumb2
									{
										OFFSET 6.568451 -3.792297 3.792300
										CHANNELS 3 Xrotation Yrotation Zrotation
										JOINT mixamorig:LeftHandThumb3
										{
											OFFSET 6.063080 -3.500519 3.500518
											CHANNELS 3 Xrotation Yrotation Zrotation
											JOINT mixamorig:LeftHandThumb4
											{
												OFFSET 4.793182 -2.767334 2.767349
												CHANNELS 3 Xrotation Yrotation Zrotation
												End Site
												{
													OFFSET 0.101639 6.054260 1.275483
												}
											}
										}
									}
								}
								JOINT mixamorig:LeftHandIndex1
								{
									OFFSET 23.101074 -0.309540 4.992809
									CHANNELS 3 Xrotation Yrotation Zrotation
									JOINT mixamorig:LeftHandIndex2
									{
										OFFSET 6.226883 0.000000 0.000000
										CHANNELS 3 Xrotation Yrotation Zrotation
										JOINT mixamorig:LeftHandIndex3
										{
											OFFSET 6.094330 0.000000 0.000000
											CHANNELS 3 Xrotation Yrotation Zrotation
											JOINT mixamorig:LeftHandIndex4
											{
												OFFSET 5.482605 0.000000 0.000000
												CHANNELS 3 Xrotation Yrotation Zrotation
												End Site
												{
													OFFSET -1.427902 5.233032 0.797164
												}
											}
										}
									}
								}
								JOINT mixamorig:LeftHandRing1
								{
									OFFSET 22.299240 0.021149 -3.964172
									CHANNELS 3 Xrotation Yrotation Zrotation
									JOINT mixamorig:LeftHandRing2
									{
										OFFSET 6.321869 0.000000 0.000000
										CHANNELS 3 Xrotation Yrotation Zrotation
										JOINT mixamorig:LeftHandRing3
										{
											OFFSET 5.899796 0.000000 0.000000
											CHANNELS 3 Xrotation Yrotation Zrotation
											JOINT mixamorig:LeftHandRing4
											{
												OFFSET 6.517899 0.000000 0.000000
												CHANNELS 3 Xrotation Yrotation Zrotation
												End Site
												{
													OFFSET -1.637299 6.232208 0.980890
												}
											}
										}
									}
								}
								JOINT mixamorig:LeftHandPinky1
								{
									OFFSET 20.463791 -0.302338 -8.562233
									CHANNELS 3 Xrotation Yrotation Zrotation
									JOINT mixamorig:LeftHandPinky2
									{
										OFFSET 6.908646 0.000000 0.000000
										CHANNELS 3 Xrotation Yrotation Zrotation
										JOINT mixamorig:LeftHandPinky3
										{
											OFFSET 4.622849 0.000000 0.000000
											CHANNELS 3 Xrotation Yrotation Zrotation
											JOINT mixamorig:LeftHandPinky4
											{
												OFFSET 5.216080 0.000000 0.000000
												CHANNELS 3 Xrotation Yrotation Zrotation
												End Site
												{
													OFFSET -0.606308 5.116241 0.814926
												}
											}
										}
									}
								}
							}
						}
					}
				}
				JOINT mixamorig:RightShoulder
				{
					OFFSET -12.001300 18.284088 1.348900
					CHANNELS 3 Xrotation Yrotation Zrotation
					JOINT mixamorig:RightArm
					{
						OFFSET -25.308500 -0.751312 -5.164599
						CHANNELS 3 Xrotation Yrotation Zrotation
						JOINT mixamorig:RightForeArm
						{
							OFFSET -54.684429 0.000000 0.000000
							CHANNELS 3 Xrotation Yrotation Zrotation
							JOINT mixamorig:RightHand
							{
								OFFSET -55.150291 0.000000 0.000000
								CHANNELS 3 Xrotation Yrotation Zrotation
								JOINT mixamorig:RightHandMiddle1
								{
									OFFSET -23.317566 0.000000 0.000000
									CHANNELS 3 Xrotation Yrotation Zrotation
									JOINT mixamorig:RightHandMiddle2
									{
										OFFSET -6.378403 0.000000 0.000000
										CHANNELS 3 Xrotation Yrotation Zrotation
										JOINT mixamorig:RightHandMiddle3
										{
											OFFSET -6.148193 0.000000 0.000000
											CHANNELS 3 Xrotation Yrotation Zrotation
											JOINT mixamorig:RightHandMiddle4
											{
												OFFSET -6.583389 0.000000 0.000000
												CHANNELS 3 Xrotation Yrotation Zrotation
												End Site
												{
													OFFSET 1.171692 6.395905 1.029786
												}
											}
										}
									}
								}
								JOINT mixamorig:RightHandThumb1
								{
									OFFSET -7.190521 -3.860474 5.435846
									CHANNELS 3 Xrotation Yrotation Zrotation
									JOINT mixamorig:RightHandThumb2
									{
										OFFSET -6.567429 -3.791718 3.791708
										CHANNELS 3 Xrotation Yrotation Zrotation
										JOINT mixamorig:RightHandThumb3
										{
											OFFSET -6.062469 -3.500153 3.500166
											CHANNELS 3 Xrotation Yrotation Zrotation
											JOINT mixamorig:RightHandThumb4
											{
												OFFSET -4.792618 -2.767029 2.767022
												CHANNELS 3 Xrotation Yrotation Zrotation
												End Site
												{
													OFFSET -0.100327 6.053253 1.276754
												}
											}
										}
									}
								}
								JOINT mixamorig:RightHandIndex1
								{
									OFFSET -23.048981 -0.310791 4.992554
									CHANNELS 3 Xrotation Yrotation Zrotation
									JOINT mixamorig:RightHandIndex2
									{
										OFFSET -6.227539 0.000000 0.000000
										CHANNELS 3 Xrotation Yrotation Zrotation
										JOINT mixamorig:RightHandIndex3
										{
											OFFSET -6.095047 0.000000 0.000000
											CHANNELS 3 Xrotation Yrotation Zrotation
											JOINT mixamorig:RightHandIndex4
											{
												OFFSET -5.484772 0.000000 0.000000
												CHANNELS 3 Xrotation Yrotation Zrotation
												End Site
												{
													OFFSET 1.420593 5.237305 0.797056
												}
											}
										}
									}
								}
								JOINT mixamorig:RightHandRing1
								{
									OFFSET -22.246323 0.020569 -3.963762
									CHANNELS 3 Xrotation Yrotation Zrotation
									JOINT mixamorig:RightHandRing2
									{
										OFFSET -6.322128 0.000000 0.000000
										CHANNELS 3 Xrotation Yrotation Zrotation
										JOINT mixamorig:RightHandRing3
										{
											OFFSET -5.900024 0.000000 0.000000
											CHANNELS 3 Xrotation Yrotation Zrotation
											JOINT mixamorig:RightHandRing4
											{
												OFFSET -6.518356 0.000000 0.000000
												CHANNELS 3 Xrotation Yrotation Zrotation
												End Site
												{
													OFFSET 1.636398 6.232697 0.982186
												}
											}
										}
									}
								}
								JOINT mixamorig:RightHandPinky1
								{
									OFFSET -20.411011 -0.303314 -8.561701
									CHANNELS 3 Xrotation Yrotation Zrotation
									JOINT mixamorig:RightHandPinky2
									{
										OFFSET -6.907349 0.000000 0.000000
										CHANNELS 3 Xrotation Yrotation Zrotation
										JOINT mixamorig:RightHandPinky3
										{
											OFFSET -4.623840 0.000000 0.000000
											CHANNELS 3 Xrotation Yrotation Zrotation
											JOINT mixamorig:RightHandPinky4
											{
												OFFSET -5.218353 0.000000 0.000000
												CHANNELS 3 Xrotation Yrotation Zrotation
												End Site
												{
													OFFSET 0.602097 5.118835 0.816273
												}
											}
										}
									}
								}
							}
						}
					}
				}
			}
		}
	}
	JOINT mixamorig:LeftUpLeg
	{
		OFFSET 18.168400 -13.561905 -0.039000
		CHANNELS 3 Xrotation Yrotation Zrotation
		JOINT mixamorig:LeftLeg
		{
			OFFSET 0.577358 -80.825211 -3.695000
			CHANNELS 3 Xrotation Yrotation Zrotation
			JOINT mixamorig:LeftFoot
			{
				OFFSET -0.577356 -83.370262 -6.520700
				CHANNELS 3 Xrotation Yrotation Zrotation
				JOINT mixamorig:LeftToeBase
				{
					OFFSET 0.750401 -20.798306 25.135401
					CHANNELS 3 Xrotation Yrotation Zrotation
					JOINT mixamorig:LeftToe_End
					{
						OFFSET -0.000500 0.001200 19.917799
						CHANNELS 3 Xrotation Yrotation Zrotation
						End Site
						{
							OFFSET 0.000000 19.917805 0.000000
						}
					}
				}
			}
		}
	}
	JOINT mixamorig:RightUpLeg
	{
		OFFSET -18.162500 -13.585098 -0.041000
		CHANNELS 3 Xrotation Yrotation Zrotation
		JOINT mixamorig:RightLeg
		{
			OFFSET -0.595024 -80.945297 -3.631900
			CHANNELS 3 Xrotation Yrotation Zrotation
			JOINT mixamorig:RightFoot
			{
				OFFSET 0.595024 -83.218193 -6.561200
				CHANNELS 3 Xrotation Yrotation Zrotation
				JOINT mixamorig:RightToeBase
				{
					OFFSET -0.753601 -20.807106 25.115000
					CHANNELS 3 Xrotation Yrotation Zrotation
					JOINT mixamorig:RightToe_End
					{
						OFFSET 0.000299 0.001700 19.918200
						CHANNELS 3 Xrotation Yrotation Zrotation
						End Site
						{
							OFFSET 0.000000 19.918203 0.000000
						}
					}
				}
			}
		}
	}
}
MOTION
Frames: 4
Frame Time: 0.033333
0.766245 193.811554 -6.944794 -23.094873 -5.686831 -1.830328 7.687763 -0.924088 -0.367177 15.374073 -1.676403 -0.551058 15.374073 -1.676405 -0.551058 -11.803040 2.538409 0.513533 -20.543592 1.060039 1.922752 0.000000 -0.000000 -0.000000 0.000000 -0.000000 -0.000000 0.000000 -0.000000 -0.000000 -0.117976 -1.799433 36.289427 -52.783237 -25.523932 -11.661673 -14.597026 -27.801582 2.189038 12.412355 -2.032635 43.220512 -10.129932 -3.870859 -67.774280 -1.770923 1.712503 -28.157820 -0.000003 -0.000006 0.000001 -0.000000 0.000000 -0.000000 -11.360171 -10.015398 28.397715 19.621084 23.755277 -10.341706 0.000013 0.000021 -0.000015 0.000001 -0.000000 0.000001 -7.847191 -3.444989 -67.091234 -4.890348 2.724763 -36.316577 -0.000001 0.000005 -0.000001 -0.000000 0.000000 -0.000000 -15.177585 7.295148 -70.201641 7.766217 -0.421201 -31.520056 -0.000004 0.000002 0.000001 -0.000000 0.000001 0.000002 -16.482321 5.436051 -74.872814 8.342198 -0.186080 -18.883176 0.000001 -0.000017 0.000000 -0.000003 0.000001 0.000001 9.813674 24.196319 -37.946076 -46.242187 23.161296 -4.673692 -22.075457 26.224250 3.020029 0.654802 10.544157 -45.154603 -6.652424 -3.924336 64.485694 9.406026 5.988739 38.253653 0.000003 -0.000005 0.000002 0.000002 0.000000 0.000002 15.333565 1.500920 -10.491442 -10.396768 -3.067655 -10.223948 0.000002 -0.000012 0.000005 -0.000002 0.000000 -0.000001 0.919890 3.496417 64.452206 1.727774 9.561671 38.866280 -0.000000 -0.000004 0.000001 0.000002 -0.000000 -0.000001 -5.546333 1.390178 64.784802 0.234011 -1.791478 39.151792 -0.000003 -0.000006 0.000003 0.000000 -0.000000 0.000002 -17.806356 -16.572307 61.043313 25.329482 3.861589 27.748076 0.000005 0.000014 0.000001 -0.000002 -0.000000 0.000000 -91.051674 8.351713 32.135077 123.922062 -20.965597 0.176496 -29.398309 -3.996369 12.792686 -46.492200 -2.666925 -1.954470 0.000000 0.000001 -0.000000 -108.057964 -6.352096 -37.068096 128.918236 23.121290 -1.649490 -24.881778 0.542139 -2.117157 -38.850136 6.007519 10.674950 0.000002 -0.000001 0.000000 
-1.948453 196.677673 -7.037224 -24.196895 -6.040781 -0.650959 7.530183 -0.978862 -0.804145 15.055600 -1.743187 -1.278394 15.055607 -1.743191 -1.278394 -11.076458 1.495652 0.876647 -19.778578 0.191343 2.585596 -0.000001 -0.000000 -0.000000 -0.000001 -0.000000 -0.000000 -0.000001 -0.000000 -0.000000 0.705593 -3.192036 37.761746 -53.423018 -23.827419 -15.154802 -12.675111 -25.507167 3.018079 14.954037 -4.758342 41.479411 -10.134459 -3.869251 -67.799654 -1.770986 1.713210 -28.162396 0.000001 -0.000006 0.000001 -0.000000 -0.000000 0.000000 -11.362914 -10.012217 28.407020 19.628377 23.764598 -10.347226 0.000012 0.000024 -0.000011 0.000001 0.000000 0.000001 -7.848756 -3.442662 -67.120003 -4.891455 2.725973 -36.324589 -0.000002 0.000006 -0.000003 -0.000001 0.000000 -0.000000 -15.182676 7.298919 -70.219385 7.769419 -0.422548 -31.525151 -0.000003 0.000003 0.000000 -0.000002 -0.000001 -0.000001 -16.489339 5.438064 -74.889814 8.344854 -0.184432 -18.880052 0.000001 -0.000017 0.000001 0.000001 -0.000000 -0.000001 13.120701 27.555744 -35.604987 -47.753455 23.458987 -5.601547 -19.923786 30.165530 1.949409 2.946098 6.968486 -45.098114 -6.648819 -3.928653 64.471296 9.407353 5.993085 38.262108 -0.000001 -0.000003 -0.000000 -0.000001 -0.000001 -0.000000 15.335426 1.497625 -10.492888 -10.398552 -3.067485 -10.238874 0.000002 -0.000012 -0.000000 0.000000 -0.000000 0.000002 0.926841 3.494384 64.441182 1.727068 9.565033 38.870398 -0.000000 -0.000005 0.000002 -0.000001 -0.000003 0.000001 -5.543727 1.388413 64.764830 0.235508 -1.792570 39.158380 -0.000004 -0.000008 0.000003 -0.000000 -0.000000 -0.000003 -17.806184 -16.577409 61.020302 25.338279 3.862190 27.746001 0.000005 0.000016 0.000002 0.000000 -0.000002 -0.000000 -89.030307 7.347997 31.070312 122.891318 -16.695535 0.474794 -24.066207 -2.977028 7.878262 -46.774990 -2.399683 -0.354891 0.000001 0.000001 -0.000001 -106.240212 -6.640782 -34.314122 128.921747 18.546916 -1.888956 -21.857017 0.742310 -2.009364 -43.745022 6.621165 12.761630 0.000001 -0.000000 0.000000 
-4.740344 202.269012 -7.728386 -25.169869 -6.750845 1.240511 7.523058 -1.129740 -1.023541 15.045749 -1.885336 -1.395179 15.045746 -1.885331 -1.395180 -9.507924 -0.796900 1.637047 -18.100946 -1.721932 4.018666 -0.000000 0.000000 0.000000 -0.000000 0.000000 0.000000 -0.000000 0.000000 0.000000 0.563811 -3.486070 33.502119 -53.685236 -24.752821 -17.097896 -10.948549 -22.872429 3.051421 17.250138 -8.056118 41.372297 -10.117644 -3.875369 -67.704435 -1.770703 1.710549 -28.146106 -0.000000 -0.000006 -0.000002 -0.000000 0.000000 0.000002 -11.352538 -10.023840 28.372193 19.601224 23.729588 -10.326825 0.000012 0.000021 -0.000012 0.000001 0.000001 0.000000 -7.842979 -3.451410 -67.012086 -4.887401 2.721561 -36.294509 -0.000002 0.000005 -0.000001 -0.000001 0.000001 0.000001 -15.164043 7.284708 -70.152736 7.757669 -0.417730 -31.507024 -0.000007 0.000005 -0.000002 -0.000001 -0.000002 -0.000000 -16.463848 5.430086 -74.825808 8.335139 -0.190567 -18.891494 0.000002 -0.000018 0.000001 -0.000002 -0.000001 -0.000000 15.140735 30.054403 -37.154638 -51.291866 21.790853 -0.159593 -16.541330 39.550914 -0.625330 7.577700 -0.057725 -44.774315 -6.658751 -3.919657 64.409886 9.402545 5.977081 38.231007 0.000000 -0.000003 0.000003 0.000002 0.000000 -0.000000 15.328603 1.509577 -10.487626 -10.387947 -3.076909 -10.184562 0.000003 -0.000012 0.000002 -0.000001 -0.000000 0.000000 0.907184 3.488072 64.367921 1.729468 9.552914 38.856690 -0.000002 -0.000003 0.000002 -0.000002 -0.000001 0.000000 -5.544224 1.388330 64.723856 0.229962 -1.788464 39.135358 -0.000003 -0.000007 0.000002 -0.000001 -0.000001 0.000002 -17.801746 -16.562114 60.991841 25.305366 3.859818 27.753738 0.000005 0.000015 0.000001 -0.000002 0.000002 -0.000000 -84.756302 7.552546 29.207637 119.537354 -13.959618 0.619395 -18.122302 -2.113899 4.228187 -46.882729 -2.269456 1.179246 -0.000000 0.000000 -0.000001 -103.026942 -7.062917 -32.100065 127.288348 14.229147 -2.066397 -17.809647 1.038933 -2.497143 -49.604864 7.503659 15.567464 0.000003 -0.000001 0.000000 
-7.718040 210.737198 -9.001434 -25.853883 -7.117579 3.219109 7.622058 -1.176469 -1.126662 15.253325 -1.792505 -1.182035 15.253325 -1.792506 -1.182033 -7.294292 -4.026846 2.640854 -15.841396 -4.460810 5.942680 -0.000001 0.000000 0.000000 -0.000001 0.000000 0.000000 -0.000001 0.000000 0.000000 0.572273 -3.326997 27.223604 -53.598267 -26.710922 -18.590043 -10.045461 -21.833086 2.787636 19.348633 -10.484884 42.836279 -10.108904 -3.878432 -67.656261 -1.770566 1.709095 -28.137477 -0.000001 -0.000006 0.000001 -0.000001 -0.000001 0.000001 -11.347407 -10.030081 28.354431 19.587338 23.711968 -10.316191 0.000012 0.000023 -0.000012 -0.000001 -0.000000 -0.000000 -7.840056 -3.455918 -66.957485 -4.885256 2.719192 -36.279274 -0.000002 0.000005 -0.000003 -0.000002 0.000000 0.000000 -15.154165 7.277558 -70.119084 7.751423 -0.415177 -31.497452 -0.000003 0.000004 -0.000002 -0.000003 0.000001 0.000002 -16.450642 5.426282 -74.793495 8.329970 -0.193844 -18.897581 0.000002 -0.000016 -0.000001 -0.000004 0.000000 0.000001 15.090311 32.021522 -37.076237 -54.951375 21.203281 7.993504 -9.107757 48.838554 -6.777056 13.651995 -6.958753 -43.254710 -6.667226 -3.909041 64.478208 9.399932 5.968672 38.214625 0.000001 -0.000001 0.000002 -0.000001 -0.000002 0.000000 15.324977 1.515914 -10.484804 -10.383777 -3.079878 -10.156621 0.000000 -0.000013 0.000004 -0.000002 -0.000000 0.000002 0.891897 3.496007 64.429632 1.730773 9.546337 38.848651 -0.000001 -0.000004 0.000002 -0.000000 -0.000001 -0.000001 -5.552553 1.393869 64.802847 0.227110 -1.786274 39.122699 -0.000003 -0.000007 0.000003 -0.000001 -0.000001 0.000002 -17.804169 -16.550899 61.076159 25.288598 3.858703 27.757549 0.000004 0.000014 0.000000 -0.000002 0.000001 0.000001 -78.334729 8.745256 26.131766 113.650987 -12.822410 0.628619 -12.673732 -1.433934 1.971213 -46.195202 -2.871969 2.193909 -0.000002 0.000001 0.000000 -97.927462 -7.566468 -30.568003 123.656436 10.536139 -2.007841 -13.298409 1.153455 -2.833146 -56.157949 8.459579 18.629664 0.000001 0.000000 -0.000000 
